<svg xmlns="http://www.w3.org/2000/svg" version="1.1" xmlns:xlink="http://www.w3.org/1999/xlink" xmlns:svgjs="http://svgjs.com/svgjs" width="1440" height="560" preserveAspectRatio="none" viewBox="0 0 1440 560"><g mask="url(&quot;#SvgjsMask1085&quot;)" fill="none"><rect width="1440" height="560" x="0" y="0" fill="rgba(25, 24, 91, 1)"></rect><path d="M0,640.226C115.98,661.722,204.023,535.593,301.874,469.725C397.421,405.408,520.782,364.431,566.656,258.783C612.383,153.474,557.821,35.769,539.52,-77.571C521.569,-188.742,527.765,-308.705,460.446,-398.979C391.182,-491.861,282.914,-554.906,168.762,-574.751C59.954,-593.667,-51.783,-558.616,-148.221,-504.795C-232.731,-457.631,-282.047,-371.735,-337.337,-292.304C-386.959,-221.016,-431.607,-149.179,-454.146,-65.296C-479.085,27.521,-516.87,130.449,-474.045,216.489C-431.331,302.306,-309.085,305.853,-237.616,369.737C-146.29,451.371,-120.442,617.904,0,640.226" fill="#141348"></path><path d="M1440 987.296C1520.816 982.658 1598.814 956.73 1665.127 910.3050000000001 1729.77 865.049 1764.533 793.616 1809.387 728.694 1864.584 648.801 1952.5549999999998 582.34 1958.6680000000001 485.427 1965.042 384.382 1921.021 274.962 1842.002 211.663 1765.108 150.067 1654.584 172.47199999999998 1556.492 163.26299999999998 1477.543 155.851 1397.185 133.87099999999998 1323.423 162.976 1252.343 191.02300000000002 1222.747 272.824 1161.85 318.981 1078.526 382.137 930.711 382.152 901.723 482.60699999999997 873.942 578.879 984.854 658.919 1039.522 742.892 1086.013 814.304 1124.892 892.7470000000001 1197.629 937.137 1269.509 981.004 1355.93 992.121 1440 987.296" fill="#1e1d6e"></path></g><defs><mask id="SvgjsMask1085"><rect width="1440" height="560" fill="#ffffff"></rect></mask></defs></svg>