<svg xmlns="http://www.w3.org/2000/svg" version="1.1" xmlns:xlink="http://www.w3.org/1999/xlink" xmlns:svgjs="http://svgjs.com/svgjs" width="1440" height="560" preserveAspectRatio="none" viewBox="0 0 1440 560"><g mask="url(&quot;#SvgjsMask1065&quot;)" fill="none"><rect width="1440" height="560" x="0" y="0" fill="rgba(237, 246, 255, 1)"></rect><path d="M0,603.536C109.638,586.082,178.979,483.838,272.779,424.452C367.422,364.532,502.107,352.287,553.804,252.914C605.659,153.239,570.484,29.389,533.499,-76.706C500.789,-170.536,415.774,-229.305,357.613,-309.873C292.17,-400.528,278.502,-551.835,170.266,-579.874C61.174,-608.135,-21.783,-473.53,-127.92,-435.654C-225.366,-400.88,-351.44,-441.114,-424.334,-367.688C-497.307,-294.183,-476.553,-173.155,-490.418,-70.511C-504.153,31.168,-531.237,131.467,-505.165,230.701C-476.057,341.492,-427.123,453.178,-334.956,521.201C-240.535,590.888,-115.893,621.986,0,603.536" fill="#99ccff"></path><path d="M1440 943.625C1510.539 941.312 1548.799 858.89 1612.3319999999999 828.154 1688.714 791.202 1809.3319999999999 821.861 1847.911 746.287 1885.924 671.822 1794.106 593.1 1773.713 512.019 1756.104 442.008 1772.378 365.74199999999996 1736.4479999999999 303.126 1696.45 233.421 1642.046 153.35500000000002 1562.28 143.553 1481.4 133.61399999999998 1429.457 234.971 1350.654 255.71699999999998 1268.086 277.454 1155.554 200.551 1099.882 265.286 1044.127 330.118 1118.774 430.03200000000004 1127.6 515.0840000000001 1133.944 576.224 1121.218 638.063 1144.469 694.9639999999999 1168.3220000000001 753.337 1211.998 799.1 1260.249 839.6990000000001 1314.3029999999999 885.1800000000001 1369.396 945.94 1440 943.625" fill="#ffffff"></path></g><defs><mask id="SvgjsMask1065"><rect width="1440" height="560" fill="#ffffff"></rect></mask></defs></svg>